<svg aria-hidden="true" style="position: absolute; width: 0; height: 0; overflow: hidden;" version="1.1" xmlns="http://www.w3.org/2000/svg" xmlns:xlink="http://www.w3.org/1999/xlink">
<defs>
<symbol id="icon-adobecreativecloudx" viewBox="0 0 32 32">
<path fill="#d41818" style="fill: var(--color1, #d41818)" d="M32 15.465v1.071c-0.011 0.059-0.023 0.116-0.029 0.173-0.053 0.467-0.089 0.935-0.165 1.397-0.265 1.579-0.814 2.99-1.596 4.241l0.028-0.049c-1.173 1.925-2.825 3.455-4.793 4.449l-0.067 0.031c-1.089 0.561-2.356 0.958-3.696 1.119l-0.054 0.005c-0.289 0.035-0.58 0.065-0.869 0.097h-11.241c-0.057-0.011-0.113-0.027-0.171-0.032-1.196-0.075-2.308-0.361-3.323-0.821l0.059 0.024c-2.263-1.007-3.951-2.64-5.055-4.885-0.463-0.918-0.792-1.986-0.929-3.113l-0.005-0.047-0.095-0.803v-1.040c0.011-0.057 0.027-0.115 0.031-0.173 0.061-1.057 0.281-2.046 0.637-2.966l-0.023 0.066c0.955-2.507 2.621-4.368 4.984-5.572 1.135-0.587 2.469-0.959 3.882-1.026l0.022-0.001c0.15-0.008 0.325-0.012 0.501-0.012 0.53 0 1.051 0.039 1.561 0.113l-0.058-0.007c0.007 0.001 0.014 0.001 0.022 0.001 0.064 0 0.123-0.024 0.167-0.064l-0 0c0.926-0.966 2.009-1.773 3.21-2.382l0.068-0.031c1.094-0.563 2.367-0.962 3.712-1.125l0.054-0.005c0.312-0.036 0.623-0.067 0.933-0.099h0.96c0.061 0.009 0.125 0.021 0.187 0.028 0.476 0.057 0.953 0.093 1.424 0.173 1.546 0.272 2.925 0.825 4.142 1.608l-0.044-0.027c1.912 1.205 3.425 2.886 4.394 4.88l0.031 0.070c0.553 1.11 0.945 2.4 1.102 3.762l0.005 0.054c0.035 0.305 0.064 0.611 0.096 0.916zM14.107 8.532c0.020 0.027 0.025 0.039 0.033 0.043 0.657 0.329 1.287 0.717 1.88 1.156 0.037 0.027 0.131 0.016 0.176-0.013 1.629-1.049 3.396-1.412 5.293-1.069 1.86 0.335 3.373 1.28 4.529 2.789 1.309 1.707 1.809 3.64 1.448 5.787-0.243 1.44-0.811 2.733-1.773 3.815-1.76 1.973-3.964 2.789-6.557 2.444-1.596-0.213-2.973-0.913-4.115-2.085-1.464-1.504-2.939-2.997-4.407-4.497-0.196-0.2-0.413-0.36-0.695-0.396-0.044-0.006-0.095-0.010-0.147-0.010-0.445 0-0.828 0.264-1.002 0.643l-0.003 0.007c-0.189 0.4-0.165 0.853 0.247 1.264 1.636 1.635 3.259 3.283 4.893 4.92 0.28 0.28 0.58 0.54 0.899 0.776 1.195 0.881 2.541 1.369 4 1.565 1.144 0.155 2.28 0.12 3.407-0.136 2.149-0.492 3.931-1.607 5.333-3.329 1.105-1.342 1.859-3.013 2.096-4.845l0.005-0.048c0.056-0.393 0.088-0.847 0.088-1.308 0-0.65-0.064-1.286-0.185-1.9l0.010 0.062c-0.325-1.693-1.031-3.211-2.16-4.503-2.157-2.461-4.871-3.56-8.099-3.316-1.306 0.111-2.503 0.488-3.567 1.076l0.046-0.023c-0.636 0.339-1.184 0.715-1.686 1.144l0.013-0.011zM13.317 25.72c-0.056-0.052-0.099-0.093-0.142-0.134l0.009 0.009c-0.668-0.643-1.341-1.28-2.003-1.932-0.099-0.113-0.243-0.183-0.404-0.183-0.008 0-0.016 0-0.024 0l0.001-0c-0.669 0.016-1.34 0.019-2-0.133-3.281-0.753-5.187-4.381-3.977-7.573 0.953-2.519 3.595-4.051 6.199-3.579 1.167 0.212 2.192 0.715 3.032 1.596 1.027 1.077 2.083 2.123 3.12 3.188 0.235 0.243 0.507 0.353 0.833 0.307 0.421-0.061 0.759-0.267 0.911-0.688 0.149-0.413 0.077-0.807-0.231-1.125-1.088-1.12-2.151-2.269-3.283-3.343-2.196-2.081-4.784-2.701-7.648-1.816-3.851 1.191-6.105 5.235-5.225 9.225 0.803 3.636 3.929 6.187 7.588 6.191h3.065c0.051 0 0.101-0.005 0.179-0.009z"></path>
</symbol>
<symbol id="icon-chevron-small-down" viewBox="0 0 20 20">
<path d="M13.418 7.859c0.271-0.268 0.709-0.268 0.978 0s0.272 0.701 0 0.969l-3.908 3.83c-0.27 0.268-0.707 0.268-0.979 0l-3.908-3.83c-0.27-0.267-0.27-0.701 0-0.969s0.709-0.268 0.978 0l3.421 3.141 3.418-3.141z"></path>
</symbol>
<symbol id="icon-chevron-small-right" viewBox="0 0 20 20">
<path d="M11 10l-3.141-3.42c-0.268-0.27-0.268-0.707 0-0.978 0.268-0.27 0.701-0.27 0.969 0l3.83 3.908c0.268 0.271 0.268 0.709 0 0.979l-3.83 3.908c-0.267 0.272-0.701 0.27-0.969 0s-0.268-0.707 0-0.978l3.141-3.419z"></path>
</symbol>
<symbol id="icon-tablet" viewBox="0 0 20 20">
<path d="M16 0h-12c-1.1 0-2 0.899-2 2v16c0 1.1 0.9 2 2 2h12c1.101 0 2-0.9 2-2v-16c0-1.101-0.899-2-2-2zM10 19c-0.69 0-1.25-0.447-1.25-1s0.56-1 1.25-1c0.689 0 1.25 0.447 1.25 1s-0.561 1-1.25 1zM16 16h-12v-14h12v14z"></path>
</symbol>
<symbol id="icon-tv" viewBox="0 0 20 20">
<path d="M18 1h-16c-1.101 0-2 0.9-2 2v11c0 1.1 0.882 2.178 1.961 2.393l4.372 0.875c0 0-3.763 1.732-1.333 1.732h10c2.43 0-1.334-1.732-1.334-1.732l4.373-0.875c1.078-0.215 1.961-1.293 1.961-2.393v-11c0-1.1-0.9-2-2-2zM18 14h-16v-11h16v11z"></path>
</symbol>
<symbol id="icon-instagram" viewBox="0 0 20 20">
<path d="M17 1h-14c-1.1 0-2 0.9-2 2v14c0 1.101 0.9 2 2 2h14c1.1 0 2-0.899 2-2v-14c0-1.1-0.9-2-2-2zM9.984 15.523c3.059 0 5.538-2.481 5.538-5.539 0-0.338-0.043-0.664-0.103-0.984h1.581v7.216c0 0.382-0.31 0.69-0.693 0.69h-12.614c-0.383 0-0.693-0.308-0.693-0.69v-7.216h1.549c-0.061 0.32-0.104 0.646-0.104 0.984 0 3.059 2.481 5.539 5.539 5.539zM6.523 9.984c0-1.912 1.55-3.461 3.462-3.461s3.462 1.549 3.462 3.461-1.551 3.462-3.462 3.462c-1.913 0-3.462-1.55-3.462-3.462zM16.307 6h-1.615c-0.382 0-0.692-0.312-0.692-0.692v-1.617c0-0.382 0.31-0.691 0.691-0.691h1.615c0.384 0 0.694 0.309 0.694 0.691v1.616c0 0.381-0.31 0.693-0.693 0.693z"></path>
</symbol>
<symbol id="icon-search" viewBox="0 0 32 32">
<path d="M31.008 27.231l-7.58-6.447c-0.784-0.705-1.622-1.029-2.299-0.998 1.789-2.096 2.87-4.815 2.87-7.787 0-6.627-5.373-12-12-12s-12 5.373-12 12 5.373 12 12 12c2.972 0 5.691-1.081 7.787-2.87-0.031 0.677 0.293 1.515 0.998 2.299l6.447 7.58c1.104 1.226 2.907 1.33 4.007 0.23s0.997-2.903-0.23-4.007zM12 20c-4.418 0-8-3.582-8-8s3.582-8 8-8 8 3.582 8 8-3.582 8-8 8z"></path>
</symbol>
<symbol id="icon-sphere" viewBox="0 0 32 32">
<path d="M15 2c-8.284 0-15 6.716-15 15s6.716 15 15 15c8.284 0 15-6.716 15-15s-6.716-15-15-15zM23.487 22c0.268-1.264 0.437-2.606 0.492-4h3.983c-0.104 1.381-0.426 2.722-0.959 4h-3.516zM6.513 12c-0.268 1.264-0.437 2.606-0.492 4h-3.983c0.104-1.381 0.426-2.722 0.959-4h3.516zM21.439 12c0.3 1.28 0.481 2.62 0.54 4h-5.979v-4h5.439zM16 10v-5.854c0.456 0.133 0.908 0.355 1.351 0.668 0.831 0.586 1.625 1.488 2.298 2.609 0.465 0.775 0.867 1.638 1.203 2.578h-4.852zM10.351 7.422c0.673-1.121 1.467-2.023 2.298-2.609 0.443-0.313 0.895-0.535 1.351-0.668v5.854h-4.852c0.336-0.94 0.738-1.803 1.203-2.578zM14 12v4h-5.979c0.059-1.38 0.24-2.72 0.54-4h5.439zM2.997 22c-0.533-1.278-0.854-2.619-0.959-4h3.983c0.055 1.394 0.224 2.736 0.492 4h-3.516zM8.021 18h5.979v4h-5.439c-0.3-1.28-0.481-2.62-0.54-4zM14 24v5.854c-0.456-0.133-0.908-0.355-1.351-0.668-0.831-0.586-1.625-1.488-2.298-2.609-0.465-0.775-0.867-1.638-1.203-2.578h4.852zM19.649 26.578c-0.673 1.121-1.467 2.023-2.298 2.609-0.443 0.312-0.895 0.535-1.351 0.668v-5.854h4.852c-0.336 0.94-0.738 1.802-1.203 2.578zM16 22v-4h5.979c-0.059 1.38-0.24 2.72-0.54 4h-5.439zM23.98 16c-0.055-1.394-0.224-2.736-0.492-4h3.516c0.533 1.278 0.855 2.619 0.959 4h-3.983zM25.958 10h-2.997c-0.582-1.836-1.387-3.447-2.354-4.732 1.329 0.636 2.533 1.488 3.585 2.54 0.671 0.671 1.261 1.404 1.766 2.192zM5.808 7.808c1.052-1.052 2.256-1.904 3.585-2.54-0.967 1.285-1.771 2.896-2.354 4.732h-2.997c0.504-0.788 1.094-1.521 1.766-2.192zM4.042 24h2.997c0.583 1.836 1.387 3.447 2.354 4.732-1.329-0.636-2.533-1.488-3.585-2.54-0.671-0.671-1.261-1.404-1.766-2.192zM24.192 26.192c-1.052 1.052-2.256 1.904-3.585 2.54 0.967-1.285 1.771-2.896 2.354-4.732h2.997c-0.504 0.788-1.094 1.521-1.766 2.192z"></path>
</symbol>
<symbol id="icon-facebook2" viewBox="0 0 32 32">
<path d="M29 0h-26c-1.65 0-3 1.35-3 3v26c0 1.65 1.35 3 3 3h13v-14h-4v-4h4v-2c0-3.306 2.694-6 6-6h4v4h-4c-1.1 0-2 0.9-2 2v2h6l-1 4h-5v14h9c1.65 0 3-1.35 3-3v-26c0-1.65-1.35-3-3-3z"></path>
</symbol>
<symbol id="icon-twitter" viewBox="0 0 32 32">
<path d="M32 7.075c-1.175 0.525-2.444 0.875-3.769 1.031 1.356-0.813 2.394-2.1 2.887-3.631-1.269 0.75-2.675 1.3-4.169 1.594-1.2-1.275-2.906-2.069-4.794-2.069-3.625 0-6.563 2.938-6.563 6.563 0 0.512 0.056 1.012 0.169 1.494-5.456-0.275-10.294-2.888-13.531-6.862-0.563 0.969-0.887 2.1-0.887 3.3 0 2.275 1.156 4.287 2.919 5.463-1.075-0.031-2.087-0.331-2.975-0.819 0 0.025 0 0.056 0 0.081 0 3.181 2.263 5.838 5.269 6.437-0.55 0.15-1.131 0.231-1.731 0.231-0.425 0-0.831-0.044-1.237-0.119 0.838 2.606 3.263 4.506 6.131 4.563-2.25 1.762-5.075 2.813-8.156 2.813-0.531 0-1.050-0.031-1.569-0.094 2.913 1.869 6.362 2.95 10.069 2.95 12.075 0 18.681-10.006 18.681-18.681 0-0.287-0.006-0.569-0.019-0.85 1.281-0.919 2.394-2.075 3.275-3.394z"></path>
</symbol>
<symbol id="icon-linkedin" viewBox="0 0 32 32">
<path d="M29 0h-26c-1.65 0-3 1.35-3 3v26c0 1.65 1.35 3 3 3h26c1.65 0 3-1.35 3-3v-26c0-1.65-1.35-3-3-3zM12 26h-4v-14h4v14zM10 10c-1.106 0-2-0.894-2-2s0.894-2 2-2c1.106 0 2 0.894 2 2s-0.894 2-2 2zM26 26h-4v-8c0-1.106-0.894-2-2-2s-2 0.894-2 2v8h-4v-14h4v2.481c0.825-1.131 2.087-2.481 3.5-2.481 2.488 0 4.5 2.238 4.5 5v9z"></path>
</symbol>
<symbol id="icon-adobecreativecloud" viewBox="0 0 32 32">
<path d="M32 15.465v1.071c-0.011 0.059-0.023 0.116-0.029 0.173-0.053 0.467-0.089 0.935-0.165 1.397-0.265 1.579-0.814 2.99-1.596 4.241l0.028-0.049c-1.173 1.925-2.825 3.455-4.793 4.449l-0.067 0.031c-1.089 0.561-2.356 0.958-3.696 1.119l-0.054 0.005c-0.289 0.035-0.58 0.065-0.869 0.097h-11.241c-0.057-0.011-0.113-0.027-0.171-0.032-1.196-0.075-2.308-0.361-3.323-0.821l0.059 0.024c-2.263-1.007-3.951-2.64-5.055-4.885-0.463-0.918-0.792-1.986-0.929-3.113l-0.005-0.047-0.095-0.803v-1.040c0.011-0.057 0.027-0.115 0.031-0.173 0.061-1.057 0.281-2.046 0.637-2.966l-0.023 0.066c0.955-2.507 2.621-4.368 4.984-5.572 1.135-0.587 2.469-0.959 3.882-1.026l0.022-0.001c0.15-0.008 0.325-0.012 0.501-0.012 0.53 0 1.051 0.039 1.561 0.113l-0.058-0.007c0.007 0.001 0.014 0.001 0.022 0.001 0.064 0 0.123-0.024 0.167-0.064l-0 0c0.926-0.966 2.009-1.773 3.21-2.382l0.068-0.031c1.094-0.563 2.367-0.962 3.712-1.125l0.054-0.005c0.312-0.036 0.623-0.067 0.933-0.099h0.96c0.061 0.009 0.125 0.021 0.187 0.028 0.476 0.057 0.953 0.093 1.424 0.173 1.546 0.272 2.925 0.825 4.142 1.608l-0.044-0.027c1.912 1.205 3.425 2.886 4.394 4.88l0.031 0.070c0.553 1.11 0.945 2.4 1.102 3.762l0.005 0.054c0.035 0.305 0.064 0.611 0.096 0.916zM14.107 8.532c0.020 0.027 0.025 0.039 0.033 0.043 0.657 0.329 1.287 0.717 1.88 1.156 0.037 0.027 0.131 0.016 0.176-0.013 1.629-1.049 3.396-1.412 5.293-1.069 1.86 0.335 3.373 1.28 4.529 2.789 1.309 1.707 1.809 3.64 1.448 5.787-0.243 1.44-0.811 2.733-1.773 3.815-1.76 1.973-3.964 2.789-6.557 2.444-1.596-0.213-2.973-0.913-4.115-2.085-1.464-1.504-2.939-2.997-4.407-4.497-0.196-0.2-0.413-0.36-0.695-0.396-0.044-0.006-0.095-0.010-0.147-0.010-0.445 0-0.828 0.264-1.002 0.643l-0.003 0.007c-0.189 0.4-0.165 0.853 0.247 1.264 1.636 1.635 3.259 3.283 4.893 4.92 0.28 0.28 0.58 0.54 0.899 0.776 1.195 0.881 2.541 1.369 4 1.565 1.144 0.155 2.28 0.12 3.407-0.136 2.149-0.492 3.931-1.607 5.333-3.329 1.105-1.342 1.859-3.013 2.096-4.845l0.005-0.048c0.056-0.393 0.088-0.847 0.088-1.308 0-0.65-0.064-1.286-0.185-1.9l0.010 0.062c-0.325-1.693-1.031-3.211-2.16-4.503-2.157-2.461-4.871-3.56-8.099-3.316-1.306 0.111-2.503 0.488-3.567 1.076l0.046-0.023c-0.636 0.339-1.184 0.715-1.686 1.144l0.013-0.011zM13.317 25.72c-0.056-0.052-0.099-0.093-0.142-0.134l0.009 0.009c-0.668-0.643-1.341-1.28-2.003-1.932-0.099-0.113-0.243-0.183-0.404-0.183-0.008 0-0.016 0-0.024 0l0.001-0c-0.669 0.016-1.34 0.019-2-0.133-3.281-0.753-5.187-4.381-3.977-7.573 0.953-2.519 3.595-4.051 6.199-3.579 1.167 0.212 2.192 0.715 3.032 1.596 1.027 1.077 2.083 2.123 3.12 3.188 0.235 0.243 0.507 0.353 0.833 0.307 0.421-0.061 0.759-0.267 0.911-0.688 0.149-0.413 0.077-0.807-0.231-1.125-1.088-1.12-2.151-2.269-3.283-3.343-2.196-2.081-4.784-2.701-7.648-1.816-3.851 1.191-6.105 5.235-5.225 9.225 0.803 3.636 3.929 6.187 7.588 6.191h3.065c0.051 0 0.101-0.005 0.179-0.009z"></path>
</symbol>
</defs>
</svg>
